<?xml version="1.0" standalone="no"?>
<!DOCTYPE svg PUBLIC "-//W3C//DTD SVG 20010904//EN"
 "http://www.w3.org/TR/2001/REC-SVG-20010904/DTD/svg10.dtd">
<svg version="1.0" xmlns="http://www.w3.org/2000/svg"
 width="300.000000pt" height="300.000000pt" viewBox="0 0 300.000000 300.000000"
 preserveAspectRatio="xMidYMid meet">
<metadata>
Created by potrace 1.10, written by Peter Selinger 2001-2011
</metadata>
<g transform="translate(0.000000,300.000000) scale(0.100000,-0.100000)"
fill="#000000" stroke="none">
<path d="M449 2562 c-39 -20 -62 -41 -84 -77 l-30 -48 -3 -661 c-3 -735 -5
-710 64 -779 68 -68 62 -67 703 -67 l576 0 293 -260 c161 -143 301 -260 310
-260 40 0 42 15 42 271 l0 247 98 4 c106 5 138 16 190 69 65 66 63 45 60 775
l-3 661 -30 48 c-22 36 -45 57 -84 77 l-53 28 -998 0 -998 0 -53 -28z m2057
-82 c77 -38 74 -7 74 -722 0 -610 -1 -634 -20 -665 -35 -58 -60 -67 -177 -64
-82 1 -110 -2 -129 -14 l-25 -16 3 -219 c3 -202 0 -237 -17 -210 -6 9 -420
381 -484 433 l-33 28 -593 -1 c-372 -1 -600 2 -612 8 -10 6 -29 22 -43 37
l-25 27 -3 644 c-3 728 -6 695 71 733 42 21 52 21 1006 21 951 0 965 0 1007
-20z m-198 -1529 c-28 -36 -38 -38 -38 -8 0 30 7 37 37 37 l25 0 -24 -29z
m-91 -411 c12 0 31 12 42 26 l21 27 0 -61 c0 -33 -4 -63 -9 -66 -5 -3 -42 26
-83 65 -40 39 -55 57 -33 40 22 -17 49 -31 62 -31z"/>
<path d="M1415 2270 c-198 -35 -373 -198 -413 -385 -21 -97 -22 -123 -12 -196
48 -343 435 -545 742 -388 42 21 51 55 22 83 -19 20 -13 21 -87 -11 -206 -87
-444 2 -544 205 -37 73 -38 80 -38 181 0 98 2 111 32 173 74 158 213 248 380
248 239 0 423 -183 423 -420 0 -82 -19 -148 -65 -224 -40 -67 -42 -77 -16
-100 28 -26 58 -12 92 42 211 333 -4 765 -396 795 -38 3 -92 1 -120 -3z"/>
<path d="M1537 1801 l-138 -138 -62 64 c-67 70 -96 78 -125 35 -14 -21 -11
-26 79 -117 51 -52 100 -95 109 -95 9 0 89 72 178 159 164 161 182 187 150
219 -28 28 -54 10 -191 -127z m-140 -171 c8 0 29 10 45 22 l30 21 -11 -21 c-7
-12 -23 -29 -36 -38 -23 -15 -27 -15 -50 0 -13 9 -30 26 -36 38 l-12 21 28
-21 c15 -12 34 -22 42 -22z"/>
</g>
</svg>
