 <svg  version="1.0" xmlns="http://www.w3.org/2000/svg"  width="300.000000pt" height="300.000000pt" viewBox="0 0 300.000000 300.000000"  preserveAspectRatio="xMidYMid meet">  <g transform="translate(0.000000,300.000000) scale(0.100000,-0.100000)" fill="#000000" stroke="none"> <path d="M718 2613 l-298 -299 2 -1024 3 -1025 22 -41 c27 -51 80 -98 130 -115 31 -11 205 -14 933 -14 854 0 897 1 930 19 49 26 88 64 113 111 l22 40 0 1235 c0 1186 -1 1236 -19 1270 -26 49 -64 88 -111 113 -40 22 -45 22 -734 25 l-695 3 -298 -298z m343 218 c-12 -16 -21 -40 -21 -54 0 -51 -10 -58 -35 -29 l-24 27 -43 -24 -43 -23 65 66 c49 51 71 66 93 66 l28 0 -20 -29z m1356 -41 c66 -40 62 20 65 -1044 l3 -966 -120 120 -120 120 3 54 4 55 -54 -6 -53 -5 -50 51 -49 51 102 0 102 0 0 45 0 45 -85 0 c-47 0 -85 3 -85 6 0 3 5 25 11 50 l12 45 73 -3 74 -3 0 48 0 47 -70 0 c-62 0 -70 2 -70 19 0 10 -3 32 -6 47 l-6 29 76 -3 76 -4 0 51 0 51 -90 0 c-75 0 -90 3 -90 15 0 9 -7 29 -15 45 l-16 30 106 0 105 0 0 48 0 47 -131 -4 -131 -3 -50 51 -50 51 181 0 181 0 0 45 0 45 -252 0 c-232 0 -258 2 -318 22 -51 17 -89 21 -180 21 -91 0 -129 -4 -180 -21 -60 -20 -86 -22 -317 -22 l-253 0 0 -45 0 -45 180 0 181 0 -51 -51 -51 -51 -130 4 -129 3 0 -47 0 -48 105 0 104 0 -19 -42 -19 -43 -85 -3 -86 -3 0 -50 0 -51 76 4 76 3 -6 -29 c-3 -15 -6 -37 -6 -47 0 -17 -8 -19 -70 -19 l-70 0 0 -47 0 -48 74 3 73 3 6 -28 c4 -15 9 -38 13 -50 6 -23 5 -23 -80 -23 l-86 0 0 -45 0 -45 103 0 103 0 32 -45 c18 -25 32 -48 32 -51 0 -3 -61 -4 -135 -2 l-135 3 0 -47 0 -48 180 0 179 0 62 -40 c34 -22 68 -40 76 -40 7 0 13 -3 13 -7 0 -5 -115 -7 -255 -5 l-255 3 0 -50 0 -51 420 0 420 0 0 29 c0 27 4 30 52 40 28 6 70 20 93 30 l42 19 239 -239 c258 -258 284 -277 365 -266 23 3 55 15 70 26 16 12 30 21 33 21 2 0 1 -48 -1 -107 -6 -121 -18 -154 -66 -183 -31 -19 -57 -20 -917 -20 -860 0 -886 1 -917 20 -66 40 -62 -22 -65 1059 l-3 981 225 0 c247 0 271 5 314 63 20 27 21 44 24 263 l3 234 652 0 c629 0 653 -1 684 -20z m-1434 -232 c-2 -168 -5 -195 -20 -205 -12 -9 -70 -13 -202 -13 l-186 0 205 205 c113 113 205 205 205 205 0 0 -1 -87 -2 -192z m-397 -152 c-31 -41 -33 -70 -6 -89 25 -17 16 -27 -25 -27 -21 0 -40 -9 -55 -25 -27 -29 -44 -23 -35 14 5 21 130 161 143 161 3 0 -7 -15 -22 -34z m684 -390 c0 -2 -28 -22 -62 -45 -35 -22 -75 -52 -90 -66 -33 -30 -37 -24 -8 12 26 33 25 51 -2 80 l-21 23 91 0 c51 0 92 -2 92 -4z m310 -6 c96 -16 200 -69 275 -140 287 -277 166 -754 -220 -865 -120 -35 -265 -18 -386 47 -130 68 -237 224 -260 376 -40 269 155 536 426 581 71 12 92 12 165 1z m310 -15 c-22 -23 -23 -35 -4 -80 6 -16 0 -14 -31 11 -22 17 -62 46 -89 63 l-50 31 99 0 98 0 -23 -25z m70 -145 c22 -11 51 -20 65 -20 l26 0 -19 -27 c-11 -16 -21 -37 -23 -47 -3 -15 -13 -4 -41 41 -21 33 -44 66 -53 73 -8 7 -15 18 -15 24 0 6 5 3 11 -7 5 -9 28 -26 49 -37z m-918 -37 c-21 -32 -44 -67 -51 -78 -10 -18 -11 -17 -5 7 4 19 0 36 -15 56 l-21 29 42 6 c22 3 48 13 57 21 33 34 30 13 -7 -41z m-82 -189 c-7 -24 -15 -44 -19 -43 -3 0 -16 13 -28 28 l-22 28 37 24 c20 14 39 21 41 16 2 -5 -2 -28 -9 -53z m1134 22 c18 -6 17 -9 -10 -37 l-29 -30 -12 38 c-6 21 -12 47 -12 57 -1 19 0 19 22 -1 12 -11 31 -23 41 -27z m-1145 -219 l1 -28 -35 28 -34 28 27 28 27 28 6 -28 c4 -15 7 -41 8 -56z m1138 2 l-32 -27 -3 30 c-2 17 -1 42 3 56 l6 25 29 -28 30 -29 -33 -27z m-28 -181 c-39 -24 -43 -35 -20 -71 32 -52 67 -79 118 -92 46 -12 48 -14 54 -53 3 -23 14 -51 25 -64 10 -12 -4 -3 -33 21 -28 23 -70 65 -94 93 -43 52 -93 88 -119 88 -9 0 -30 -13 -48 -29 -17 -17 -32 -28 -32 -26 0 2 17 29 39 60 21 30 49 80 61 110 l22 55 27 -38 28 -37 -28 -17z m-1080 60 c5 -13 17 -41 26 -62 l17 -39 -32 26 c-17 15 -43 27 -56 27 l-25 0 27 35 c14 19 28 35 30 35 3 0 8 -10 13 -22z m127 -197 c32 -35 49 -59 37 -52 -12 6 -44 11 -71 11 -60 0 -67 6 -43 36 19 25 18 54 -2 84 -10 13 -9 13 4 0 9 -8 42 -44 75 -79z m1115 -198 c149 -150 229 -238 233 -256 9 -40 -13 -79 -56 -100 -33 -16 -40 -16 -70 -3 -18 8 -131 113 -252 235 l-220 220 30 23 c35 28 94 90 94 101 0 4 4 7 8 7 4 0 109 -102 233 -227z m-370 138 c-26 -36 -26 -48 0 -90 l20 -33 -38 31 c-21 17 -46 31 -56 31 -28 0 -17 16 38 54 61 43 61 43 36 7z m-524 -78 c61 -21 98 -27 170 -27 51 -1 93 -3 93 -5 0 -3 -10 -15 -22 -28 -21 -22 -27 -23 -176 -23 l-155 0 21 23 c12 13 22 27 22 32 0 5 -10 19 -22 32 -27 29 -25 29 69 -4z m1213 -334 c0 -80 -3 -149 -7 -152 -3 -4 -16 4 -28 17 -17 18 -29 23 -51 19 l-29 -6 21 24 c31 35 44 64 44 99 0 38 -11 61 -59 120 -33 42 -34 43 -7 23 37 -29 61 -29 83 1 12 16 20 20 25 12 4 -6 8 -77 8 -157z"/> <path d="M1310 2485 l0 -45 95 0 95 0 0 45 0 45 -95 0 -95 0 0 -45z"/> <path d="M1590 2485 l0 -45 330 0 330 0 0 45 0 45 -330 0 -330 0 0 -45z"/> <path d="M1778 2343 l-468 -3 0 -45 0 -45 470 0 470 0 0 50 c0 28 -1 49 -2 48 -2 -2 -213 -4 -470 -5z"/> <path d="M750 703 l0 -48 187 2 188 2 1 46 1 45 -188 0 -189 0 0 -47z"/> <path d="M1220 703 l0 -48 45 0 45 0 0 48 0 47 -45 0 -45 0 0 -47z"/> <path d="M1406 704 l1 -46 93 0 93 0 1 46 1 46 -95 0 -95 0 1 -46z"/> <path d="M1375 1906 c-205 -65 -331 -266 -297 -472 23 -139 104 -249 229 -311 67 -33 85 -38 170 -41 79 -4 103 -1 156 18 382 139 381 671 -1 799 -71 24 -193 27 -257 7z m-78 -97 c-55 -39 -126 -128 -141 -177 -12 -35 17 -72 56 -72 l31 0 -21 -23 c-12 -13 -22 -29 -22 -37 0 -8 10 -24 22 -37 l21 -23 -31 0 c-38 0 -64 -32 -55 -69 8 -34 58 -109 92 -139 14 -13 46 -37 71 -54 30 -20 36 -27 20 -23 -66 20 -146 94 -185 172 -54 108 -56 224 -6 329 36 75 72 118 136 160 71 47 79 42 12 -7z m335 -11 c74 -34 119 -76 156 -147 18 -32 32 -61 32 -64 0 -3 -38 12 -84 33 -107 51 -204 74 -270 64 -65 -9 -156 -39 -229 -76 -58 -29 -59 -29 -52 -6 31 98 132 192 238 219 55 14 151 3 209 -23z m-182 -164 c0 -3 -13 -16 -29 -29 -15 -14 -34 -38 -41 -55 -14 -34 -26 -38 -34 -12 -4 11 -18 25 -31 32 -14 7 -23 15 -21 18 7 7 130 51 144 51 6 1 12 -2 12 -5z m208 -26 c28 -11 52 -24 52 -29 0 -6 -4 -8 -8 -5 -10 6 -52 -30 -52 -44 0 -21 -18 -9 -30 20 -7 17 -26 41 -41 55 -16 13 -29 26 -29 30 0 7 43 -3 108 -27z m219 -82 c3 -33 0 -81 -7 -105 l-12 -44 -19 32 c-15 24 -26 31 -51 31 l-31 0 21 23 c12 13 22 29 22 37 0 8 -10 24 -22 37 l-21 23 32 0 c25 0 36 6 49 29 14 25 18 27 26 14 5 -9 11 -43 13 -77z m-312 39 c19 -18 25 -35 25 -65 0 -30 -6 -47 -25 -65 -18 -19 -35 -25 -65 -25 -30 0 -47 6 -65 25 -19 18 -25 35 -25 65 0 30 6 47 25 65 18 19 35 25 65 25 30 0 47 -6 65 -25z m-249 -64 l0 -49 -43 21 c-24 12 -43 24 -43 27 0 3 19 16 43 27 23 12 42 22 43 22 0 1 0 -21 0 -48z m454 -1 c0 -3 -19 -15 -43 -27 l-43 -21 0 48 0 48 43 -21 c24 -12 43 -24 43 -27z m-390 -50 c7 -17 26 -42 43 -56 16 -13 27 -27 25 -30 -8 -7 -131 34 -153 51 -12 9 -14 13 -5 10 16 -6 60 28 60 45 0 21 18 9 30 -20z m274 12 c4 -11 18 -25 31 -32 19 -10 22 -16 13 -22 -20 -13 -140 -49 -146 -44 -2 3 9 17 25 30 17 14 36 39 43 56 14 34 26 38 34 12z m-229 -139 c69 -15 81 -15 150 0 41 9 113 34 160 56 47 22 85 37 85 34 0 -3 -14 -32 -32 -64 -59 -113 -161 -174 -288 -174 -65 0 -85 5 -142 33 -73 36 -124 87 -157 158 -12 24 -21 46 -21 48 0 3 38 -13 85 -35 47 -22 119 -47 160 -56z m384 -40 c-26 -36 -64 -75 -80 -84 -9 -4 6 16 35 46 52 55 69 69 45 38z"/> </g> </svg> 